# xmcd
#
# Track frame offsets: 
#        150
#        18873
#        30601
#        49543
#        75191
#        113894
#        122165
#        128026
#        150889
#        164628
#        192723
#        203908
#        211356
#        234335
#        245753
#        266641
#        278814
#        289247
#        302271
#        305902
#        329080
#
# Disc length: 4489 seconds
#
# Revision: 4
# Processed by: cddbd v1.5.2PL0 Copyright (c) Steve Scherf et al.
# Submitted via: ExactAudioCopy v1.0b3
#
DISCID=2b118715
DTITLE=Bettina Greve - Peter Lohmeyer - Auf Kurs - Die Johnny-Cash-Biog
DTITLE=rafie
DYEAR=2004
DGENRE=Hörbuch
TTITLE0=Anfang August 1955
TTITLE1=Johnny Cash - I'm so doggone lonesome
TTITLE2=Das Jahr 1955
TTITLE3=Bettina Greve - Peter Lohmeyer - Johnny Cash - I walk the line
TTITLE4=Bettina Greve - Peter Lohmeyer - Johnny Cash - June Carter Cash /
TTITLE4=Give my love to Rose
TTITLE5=Johnny Cash - Guess things happen that way
TTITLE6=Der Beginn der neuen Zeitrechnung
TTITLE7=Bettina Greve - Peter Lohmeyer - Johnny Cash - All over again
TTITLE8=Johnny Cash - Don't take your guns to town
TTITLE9="Don't take your guns to town" ist immer noch ein Renner
TTITLE10=Johnny Cash - Tennessee Three - Don't make me go
TTITLE11=Johnny Cash zieht es derweil vor
TTITLE12=Bettina Greve - Peter Lohmeyer - Johnny Cash - Everybody loves 
TTITLE12=a nut
TTITLE13=Johnny Cash - Transfusion blues
TTITLE14=Es darf aber nicht darüber hinwegtäuschen
TTITLE15=Johnny Cash - Jeri's and Nina's melody
TTITLE16=Der Gitarrist 
TTITLE17=Johnny Cash - Forty shades of green
TTITLE18=Nach "Forty shades of green" geht es munter weiter
TTITLE19=Bettina Greve - Peter Lohmeyer - Johnny Cash - Tennessee flat t
TTITLE19=op box
TTITLE20=Johnny Cash - Come in, stranger
EXTD=
EXTT0=
EXTT1=
EXTT2=
EXTT3=
EXTT4=
EXTT5=
EXTT6=
EXTT7=
EXTT8=
EXTT9=
EXTT10=
EXTT11=
EXTT12=
EXTT13=
EXTT14=
EXTT15=
EXTT16=
EXTT17=
EXTT18=
EXTT19=
EXTT20=
PLAYORDER=
